# xmcd CD database file generated by MAGIX-FreeDB-MP3_Maker_15 v2.0beta1
# 
# Track frame offsets:
#      150
#      17828
#      34042
#      54090
#      76868
#      95783
#      118294
#      134490
#      150678
#      165639
#      179933
#      199771
#      217155
#      231074
#      245269
#      263672
#      284499
#      306146
# 
# Disc length: 4429 seconds
# 
# Revision: 3 
# Processed by: cddbd v1.5.2PL0 Copyright (c) Steve Scherf et al.
# Submitted via: MAGIX-FreeDB-MP3_Maker_15 v2.0beta1
# 
DISCID=04114b12
DTITLE=Various Artist - The 80's CD3
DYEAR=1999
DGENRE=Blues
TTITLE0=Sabrina - Boys
TTITLE1=Limahl - Too Shy (Re-recording)
TTITLE2=Gloria Gaynor feat. Chico and The Gypsies - I Will Survive
TTITLE3=T'Pau - China In Your Hand (Re-recording)
TTITLE4=Phyllis Nelson - Move Closer (Re-recording)
TTITLE5=The Tweets - The Birdie Song
TTITLE6=Bucks Fizz - Land Of Make Believe (Re-recording)
TTITLE7=Evelyn Thomas - Masquerade
TTITLE8=Simon Harris - Bass (How Low Can You Go) (Re-recording)
TTITLE9=The Nolans - I'm In The Mood For Dancing (Re-recording)
TTITLE10=Sandy Coast - The Eyes Of Jenny (Re-recording)
TTITLE11=Billy Ocean - On The Run (Hold On Brother)
TTITLE12=Paul Young and The Q-Tips - I Wish It Would Rain
TTITLE13=The Brotherhood Of Man - We Don't Talk Anymore
TTITLE14=La Toya Jackson - Bad Girl
TTITLE15=Sister Sledge - Frankie (Live)
TTITLE16=Rose Royce - The Magic Touch (Live)
TTITLE17=Tavares - Bad Times (Live)
EXTD=YEAR: 1999
EXTT0=
EXTT1=
EXTT2=
EXTT3=
EXTT4=
EXTT5=
EXTT6=
EXTT7=
EXTT8=
EXTT9=
EXTT10=
EXTT11=
EXTT12=
EXTT13=
EXTT14=
EXTT15=
EXTT16=
EXTT17=
PLAYORDER=
